<mxfile host="app.diagrams.net" modified="2023-10-09T01:33:30.587Z" agent="Mozilla/5.0 (X11; Ubuntu; Linux x86_64; rv:109.0) Gecko/20100101 Firefox/118.0" etag="AAxY_YKVonrgqMVpxKM1" version="22.0.4" type="device">
  <diagram name="Page-1" id="NslVDlbili2epklFdiSu">
    <mxGraphModel dx="2185" dy="1145" grid="1" gridSize="10" guides="1" tooltips="1" connect="1" arrows="1" fold="1" page="1" pageScale="1" pageWidth="850" pageHeight="1100" math="0" shadow="0">
      <root>
        <mxCell id="0" />
        <mxCell id="1" parent="0" />
        <mxCell id="7gBy_IpvQLiR-NHgiW8y-105" value="" style="edgeStyle=none;curved=1;rounded=0;orthogonalLoop=1;jettySize=auto;html=1;fontSize=12;startSize=8;endSize=8;" edge="1" parent="1" source="7gBy_IpvQLiR-NHgiW8y-1" target="7gBy_IpvQLiR-NHgiW8y-104">
          <mxGeometry relative="1" as="geometry" />
        </mxCell>
        <mxCell id="7gBy_IpvQLiR-NHgiW8y-1" value="&lt;div&gt;inicio&lt;/div&gt;" style="rounded=0;whiteSpace=wrap;html=1;fontSize=16;labelBackgroundColor=none;" vertex="1" parent="1">
          <mxGeometry x="329.86" y="100" width="120" height="60" as="geometry" />
        </mxCell>
        <mxCell id="7gBy_IpvQLiR-NHgiW8y-13" style="edgeStyle=none;curved=1;rounded=0;orthogonalLoop=1;jettySize=auto;html=1;entryX=0;entryY=0.5;entryDx=0;entryDy=0;fontSize=12;startSize=8;endSize=8;labelBackgroundColor=none;fontColor=default;" edge="1" parent="1" source="7gBy_IpvQLiR-NHgiW8y-3" target="7gBy_IpvQLiR-NHgiW8y-11">
          <mxGeometry relative="1" as="geometry" />
        </mxCell>
        <mxCell id="7gBy_IpvQLiR-NHgiW8y-24" value="&lt;div&gt;True&lt;/div&gt;" style="edgeLabel;html=1;align=center;verticalAlign=middle;resizable=0;points=[];fontSize=16;" vertex="1" connectable="0" parent="7gBy_IpvQLiR-NHgiW8y-13">
          <mxGeometry x="-0.0464" y="-2" relative="1" as="geometry">
            <mxPoint x="1" as="offset" />
          </mxGeometry>
        </mxCell>
        <mxCell id="7gBy_IpvQLiR-NHgiW8y-224" value="" style="edgeStyle=none;curved=1;rounded=0;orthogonalLoop=1;jettySize=auto;html=1;fontSize=12;startSize=8;endSize=8;" edge="1" parent="1" source="7gBy_IpvQLiR-NHgiW8y-3" target="7gBy_IpvQLiR-NHgiW8y-222">
          <mxGeometry relative="1" as="geometry" />
        </mxCell>
        <mxCell id="7gBy_IpvQLiR-NHgiW8y-226" value="False" style="edgeLabel;html=1;align=center;verticalAlign=middle;resizable=0;points=[];fontSize=16;" vertex="1" connectable="0" parent="7gBy_IpvQLiR-NHgiW8y-224">
          <mxGeometry x="-0.3495" y="-1" relative="1" as="geometry">
            <mxPoint as="offset" />
          </mxGeometry>
        </mxCell>
        <mxCell id="7gBy_IpvQLiR-NHgiW8y-3" value="Running()" style="rhombus;whiteSpace=wrap;html=1;fontSize=16;labelBackgroundColor=none;rounded=0;" vertex="1" parent="1">
          <mxGeometry x="324.86" y="340" width="130" height="80" as="geometry" />
        </mxCell>
        <mxCell id="7gBy_IpvQLiR-NHgiW8y-4" value="&lt;div&gt;Fin&lt;/div&gt;&lt;div&gt;&lt;br&gt;&lt;/div&gt;" style="rounded=0;whiteSpace=wrap;html=1;fontSize=16;labelBackgroundColor=none;" vertex="1" parent="1">
          <mxGeometry x="329.86" y="620" width="120" height="60" as="geometry" />
        </mxCell>
        <mxCell id="7gBy_IpvQLiR-NHgiW8y-16" value="" style="edgeStyle=orthogonalEdgeStyle;rounded=0;orthogonalLoop=1;jettySize=auto;html=1;fontSize=12;startSize=8;endSize=8;labelBackgroundColor=none;fontColor=default;" edge="1" parent="1" source="7gBy_IpvQLiR-NHgiW8y-11" target="7gBy_IpvQLiR-NHgiW8y-14">
          <mxGeometry relative="1" as="geometry" />
        </mxCell>
        <mxCell id="7gBy_IpvQLiR-NHgiW8y-31" value="False" style="edgeLabel;html=1;align=center;verticalAlign=middle;resizable=0;points=[];fontSize=16;" vertex="1" connectable="0" parent="7gBy_IpvQLiR-NHgiW8y-16">
          <mxGeometry x="0.0036" y="1" relative="1" as="geometry">
            <mxPoint y="1" as="offset" />
          </mxGeometry>
        </mxCell>
        <mxCell id="7gBy_IpvQLiR-NHgiW8y-21" style="edgeStyle=orthogonalEdgeStyle;rounded=0;orthogonalLoop=1;jettySize=auto;html=1;entryX=0;entryY=0.5;entryDx=0;entryDy=0;fontSize=12;startSize=8;endSize=8;labelBackgroundColor=none;fontColor=default;" edge="1" parent="1" source="7gBy_IpvQLiR-NHgiW8y-11" target="7gBy_IpvQLiR-NHgiW8y-20">
          <mxGeometry relative="1" as="geometry" />
        </mxCell>
        <mxCell id="7gBy_IpvQLiR-NHgiW8y-32" value="&lt;div&gt;True&lt;/div&gt;" style="edgeLabel;html=1;align=center;verticalAlign=middle;resizable=0;points=[];fontSize=16;" vertex="1" connectable="0" parent="7gBy_IpvQLiR-NHgiW8y-21">
          <mxGeometry x="-0.2286" y="-4" relative="1" as="geometry">
            <mxPoint as="offset" />
          </mxGeometry>
        </mxCell>
        <mxCell id="7gBy_IpvQLiR-NHgiW8y-11" value="Is_There_Wall()" style="rhombus;whiteSpace=wrap;html=1;fontSize=16;labelBackgroundColor=none;rounded=0;" vertex="1" parent="1">
          <mxGeometry x="539.86" y="340" width="160" height="80" as="geometry" />
        </mxCell>
        <mxCell id="7gBy_IpvQLiR-NHgiW8y-18" style="edgeStyle=orthogonalEdgeStyle;rounded=0;orthogonalLoop=1;jettySize=auto;html=1;fontSize=12;startSize=8;endSize=8;labelBackgroundColor=none;fontColor=default;" edge="1" parent="1" source="7gBy_IpvQLiR-NHgiW8y-14">
          <mxGeometry relative="1" as="geometry">
            <mxPoint x="390" y="310" as="targetPoint" />
            <Array as="points">
              <mxPoint x="620" y="690" />
              <mxPoint x="250" y="690" />
              <mxPoint x="250" y="310" />
            </Array>
          </mxGeometry>
        </mxCell>
        <mxCell id="7gBy_IpvQLiR-NHgiW8y-14" value="Forward()" style="rounded=0;whiteSpace=wrap;html=1;fontSize=16;labelBackgroundColor=none;" vertex="1" parent="1">
          <mxGeometry x="559.86" y="550" width="120" height="60" as="geometry" />
        </mxCell>
        <mxCell id="7gBy_IpvQLiR-NHgiW8y-27" value="" style="edgeStyle=none;curved=1;rounded=0;orthogonalLoop=1;jettySize=auto;html=1;fontSize=12;startSize=8;endSize=8;" edge="1" parent="1" source="7gBy_IpvQLiR-NHgiW8y-20" target="7gBy_IpvQLiR-NHgiW8y-26">
          <mxGeometry relative="1" as="geometry" />
        </mxCell>
        <mxCell id="7gBy_IpvQLiR-NHgiW8y-20" value="Robot(CLOCK_WISE);" style="rounded=0;whiteSpace=wrap;html=1;fontSize=16;labelBackgroundColor=none;" vertex="1" parent="1">
          <mxGeometry x="795.86" y="350" width="180" height="60" as="geometry" />
        </mxCell>
        <mxCell id="7gBy_IpvQLiR-NHgiW8y-34" value="" style="edgeStyle=none;curved=1;rounded=0;orthogonalLoop=1;jettySize=auto;html=1;fontSize=12;startSize=8;endSize=8;" edge="1" parent="1" source="7gBy_IpvQLiR-NHgiW8y-26" target="7gBy_IpvQLiR-NHgiW8y-28">
          <mxGeometry relative="1" as="geometry" />
        </mxCell>
        <mxCell id="7gBy_IpvQLiR-NHgiW8y-35" value="False" style="edgeLabel;html=1;align=center;verticalAlign=middle;resizable=0;points=[];fontSize=16;" vertex="1" connectable="0" parent="7gBy_IpvQLiR-NHgiW8y-34">
          <mxGeometry x="-0.0437" y="-2" relative="1" as="geometry">
            <mxPoint y="1" as="offset" />
          </mxGeometry>
        </mxCell>
        <mxCell id="7gBy_IpvQLiR-NHgiW8y-36" value="" style="edgeStyle=none;curved=1;rounded=0;orthogonalLoop=1;jettySize=auto;html=1;fontSize=12;startSize=8;endSize=8;" edge="1" parent="1" source="7gBy_IpvQLiR-NHgiW8y-26" target="7gBy_IpvQLiR-NHgiW8y-30">
          <mxGeometry relative="1" as="geometry" />
        </mxCell>
        <mxCell id="7gBy_IpvQLiR-NHgiW8y-37" value="True" style="edgeLabel;html=1;align=center;verticalAlign=middle;resizable=0;points=[];fontSize=16;" vertex="1" connectable="0" parent="7gBy_IpvQLiR-NHgiW8y-36">
          <mxGeometry x="-0.156" y="-1" relative="1" as="geometry">
            <mxPoint as="offset" />
          </mxGeometry>
        </mxCell>
        <mxCell id="7gBy_IpvQLiR-NHgiW8y-26" value="Is_There_Wall()" style="rhombus;whiteSpace=wrap;html=1;fontSize=16;labelBackgroundColor=none;rounded=0;" vertex="1" parent="1">
          <mxGeometry x="805.86" y="460" width="160" height="80" as="geometry" />
        </mxCell>
        <mxCell id="7gBy_IpvQLiR-NHgiW8y-54" style="edgeStyle=orthogonalEdgeStyle;rounded=0;orthogonalLoop=1;jettySize=auto;html=1;fontSize=12;startSize=8;endSize=8;" edge="1" parent="1" source="7gBy_IpvQLiR-NHgiW8y-28">
          <mxGeometry relative="1" as="geometry">
            <mxPoint x="390" y="310" as="targetPoint" />
            <Array as="points">
              <mxPoint x="886" y="730" />
              <mxPoint x="210" y="730" />
              <mxPoint x="210" y="310" />
            </Array>
          </mxGeometry>
        </mxCell>
        <mxCell id="7gBy_IpvQLiR-NHgiW8y-28" value="Forward()" style="rounded=0;whiteSpace=wrap;html=1;fontSize=16;labelBackgroundColor=none;" vertex="1" parent="1">
          <mxGeometry x="825.86" y="610" width="120" height="60" as="geometry" />
        </mxCell>
        <mxCell id="7gBy_IpvQLiR-NHgiW8y-39" value="" style="edgeStyle=none;curved=1;rounded=0;orthogonalLoop=1;jettySize=auto;html=1;fontSize=12;startSize=8;endSize=8;" edge="1" parent="1" source="7gBy_IpvQLiR-NHgiW8y-30" target="7gBy_IpvQLiR-NHgiW8y-38">
          <mxGeometry relative="1" as="geometry" />
        </mxCell>
        <mxCell id="7gBy_IpvQLiR-NHgiW8y-30" value="&lt;div&gt;Robot(COUNTER_CW);&lt;/div&gt;&lt;div&gt;Robot(COUNTER_CW);&lt;/div&gt;" style="rounded=0;whiteSpace=wrap;html=1;fontSize=16;labelBackgroundColor=none;" vertex="1" parent="1">
          <mxGeometry x="1049.86" y="470" width="180" height="60" as="geometry" />
        </mxCell>
        <mxCell id="7gBy_IpvQLiR-NHgiW8y-42" value="" style="edgeStyle=none;curved=1;rounded=0;orthogonalLoop=1;jettySize=auto;html=1;fontSize=12;startSize=8;endSize=8;" edge="1" parent="1" source="7gBy_IpvQLiR-NHgiW8y-38" target="7gBy_IpvQLiR-NHgiW8y-41">
          <mxGeometry relative="1" as="geometry" />
        </mxCell>
        <mxCell id="7gBy_IpvQLiR-NHgiW8y-43" value="False" style="edgeLabel;html=1;align=center;verticalAlign=middle;resizable=0;points=[];fontSize=16;" vertex="1" connectable="0" parent="7gBy_IpvQLiR-NHgiW8y-42">
          <mxGeometry x="-0.1905" y="2" relative="1" as="geometry">
            <mxPoint as="offset" />
          </mxGeometry>
        </mxCell>
        <mxCell id="7gBy_IpvQLiR-NHgiW8y-45" value="" style="edgeStyle=none;curved=1;rounded=0;orthogonalLoop=1;jettySize=auto;html=1;fontSize=12;startSize=8;endSize=8;" edge="1" parent="1" source="7gBy_IpvQLiR-NHgiW8y-38" target="7gBy_IpvQLiR-NHgiW8y-44">
          <mxGeometry relative="1" as="geometry" />
        </mxCell>
        <mxCell id="7gBy_IpvQLiR-NHgiW8y-47" value="&lt;div&gt;True&lt;/div&gt;" style="edgeLabel;html=1;align=center;verticalAlign=middle;resizable=0;points=[];fontSize=16;" vertex="1" connectable="0" parent="7gBy_IpvQLiR-NHgiW8y-45">
          <mxGeometry x="-0.0466" y="-1" relative="1" as="geometry">
            <mxPoint as="offset" />
          </mxGeometry>
        </mxCell>
        <mxCell id="7gBy_IpvQLiR-NHgiW8y-38" value="Is_There_Wall()" style="rhombus;whiteSpace=wrap;html=1;fontSize=16;labelBackgroundColor=none;rounded=0;" vertex="1" parent="1">
          <mxGeometry x="1060.86" y="580" width="160" height="80" as="geometry" />
        </mxCell>
        <mxCell id="7gBy_IpvQLiR-NHgiW8y-56" style="edgeStyle=orthogonalEdgeStyle;rounded=0;orthogonalLoop=1;jettySize=auto;html=1;fontSize=12;startSize=8;endSize=8;" edge="1" parent="1">
          <mxGeometry relative="1" as="geometry">
            <mxPoint x="390" y="310" as="targetPoint" />
            <mxPoint x="1139.9" y="750" as="sourcePoint" />
            <Array as="points">
              <mxPoint x="1140" y="780" />
              <mxPoint x="170" y="780" />
              <mxPoint x="170" y="310" />
              <mxPoint x="390" y="310" />
            </Array>
          </mxGeometry>
        </mxCell>
        <mxCell id="7gBy_IpvQLiR-NHgiW8y-41" value="Forward()" style="rounded=0;whiteSpace=wrap;html=1;fontSize=16;labelBackgroundColor=none;" vertex="1" parent="1">
          <mxGeometry x="1079.86" y="720" width="120" height="60" as="geometry" />
        </mxCell>
        <mxCell id="7gBy_IpvQLiR-NHgiW8y-53" value="" style="edgeStyle=none;curved=1;rounded=0;orthogonalLoop=1;jettySize=auto;html=1;fontSize=12;startSize=8;endSize=8;" edge="1" parent="1" source="7gBy_IpvQLiR-NHgiW8y-44" target="7gBy_IpvQLiR-NHgiW8y-51">
          <mxGeometry relative="1" as="geometry" />
        </mxCell>
        <mxCell id="7gBy_IpvQLiR-NHgiW8y-44" value="&lt;div&gt;Robot(CLOCK_WISE);&lt;/div&gt;&lt;div&gt;Robot(CLOCK_WISE);&lt;/div&gt;Robot(CLOCK_WISE);" style="rounded=0;whiteSpace=wrap;html=1;fontSize=16;labelBackgroundColor=none;" vertex="1" parent="1">
          <mxGeometry x="1299.86" y="590" width="180" height="60" as="geometry" />
        </mxCell>
        <mxCell id="7gBy_IpvQLiR-NHgiW8y-49" value="" style="edgeStyle=none;curved=1;rounded=0;orthogonalLoop=1;jettySize=auto;html=1;fontSize=12;startSize=8;endSize=8;" edge="1" parent="1" source="7gBy_IpvQLiR-NHgiW8y-51" target="7gBy_IpvQLiR-NHgiW8y-52">
          <mxGeometry relative="1" as="geometry" />
        </mxCell>
        <mxCell id="7gBy_IpvQLiR-NHgiW8y-50" value="False" style="edgeLabel;html=1;align=center;verticalAlign=middle;resizable=0;points=[];fontSize=16;" vertex="1" connectable="0" parent="7gBy_IpvQLiR-NHgiW8y-49">
          <mxGeometry x="-0.1905" y="2" relative="1" as="geometry">
            <mxPoint as="offset" />
          </mxGeometry>
        </mxCell>
        <mxCell id="7gBy_IpvQLiR-NHgiW8y-58" style="edgeStyle=orthogonalEdgeStyle;rounded=0;orthogonalLoop=1;jettySize=auto;html=1;fontSize=12;startSize=8;endSize=8;" edge="1" parent="1" source="7gBy_IpvQLiR-NHgiW8y-51">
          <mxGeometry relative="1" as="geometry">
            <mxPoint x="390" y="480" as="targetPoint" />
            <Array as="points">
              <mxPoint x="1570" y="740" />
              <mxPoint x="1570" y="970" />
              <mxPoint x="260" y="970" />
              <mxPoint x="260" y="480" />
              <mxPoint x="390" y="480" />
            </Array>
          </mxGeometry>
        </mxCell>
        <mxCell id="7gBy_IpvQLiR-NHgiW8y-59" value="&lt;div&gt;True&lt;/div&gt;" style="edgeLabel;html=1;align=center;verticalAlign=middle;resizable=0;points=[];fontSize=16;" vertex="1" connectable="0" parent="7gBy_IpvQLiR-NHgiW8y-58">
          <mxGeometry x="-0.1575" y="6" relative="1" as="geometry">
            <mxPoint x="540" y="-236" as="offset" />
          </mxGeometry>
        </mxCell>
        <mxCell id="7gBy_IpvQLiR-NHgiW8y-51" value="Is_There_Wall()" style="rhombus;whiteSpace=wrap;html=1;fontSize=16;labelBackgroundColor=none;rounded=0;" vertex="1" parent="1">
          <mxGeometry x="1309.86" y="700" width="160" height="80" as="geometry" />
        </mxCell>
        <mxCell id="7gBy_IpvQLiR-NHgiW8y-57" style="edgeStyle=orthogonalEdgeStyle;rounded=0;orthogonalLoop=1;jettySize=auto;html=1;fontSize=12;startSize=8;endSize=8;" edge="1" parent="1" source="7gBy_IpvQLiR-NHgiW8y-52">
          <mxGeometry relative="1" as="geometry">
            <mxPoint x="390" y="310" as="targetPoint" />
            <Array as="points">
              <mxPoint x="1389" y="930" />
              <mxPoint x="130" y="930" />
              <mxPoint x="130" y="310" />
              <mxPoint x="390" y="310" />
            </Array>
          </mxGeometry>
        </mxCell>
        <mxCell id="7gBy_IpvQLiR-NHgiW8y-52" value="Forward()" style="rounded=0;whiteSpace=wrap;html=1;fontSize=16;labelBackgroundColor=none;" vertex="1" parent="1">
          <mxGeometry x="1328.86" y="830" width="120" height="60" as="geometry" />
        </mxCell>
        <mxCell id="7gBy_IpvQLiR-NHgiW8y-106" style="edgeStyle=none;curved=1;rounded=0;orthogonalLoop=1;jettySize=auto;html=1;entryX=0.5;entryY=0;entryDx=0;entryDy=0;fontSize=12;startSize=8;endSize=8;" edge="1" parent="1" source="7gBy_IpvQLiR-NHgiW8y-104" target="7gBy_IpvQLiR-NHgiW8y-3">
          <mxGeometry relative="1" as="geometry" />
        </mxCell>
        <mxCell id="7gBy_IpvQLiR-NHgiW8y-104" value="Testing_Maze();" style="rounded=0;whiteSpace=wrap;html=1;fontSize=16;labelBackgroundColor=none;" vertex="1" parent="1">
          <mxGeometry x="329.86" y="200" width="120" height="60" as="geometry" />
        </mxCell>
        <mxCell id="7gBy_IpvQLiR-NHgiW8y-203" style="edgeStyle=none;curved=1;rounded=0;orthogonalLoop=1;jettySize=auto;html=1;exitX=0.5;exitY=1;exitDx=0;exitDy=0;entryX=0.5;entryY=0;entryDx=0;entryDy=0;fontSize=12;startSize=8;endSize=8;" edge="1" parent="1" source="7gBy_IpvQLiR-NHgiW8y-149" target="7gBy_IpvQLiR-NHgiW8y-159">
          <mxGeometry relative="1" as="geometry" />
        </mxCell>
        <mxCell id="7gBy_IpvQLiR-NHgiW8y-215" value="&lt;font style=&quot;font-size: 21px;&quot;&gt;Is_There_Wall() /&lt;/font&gt;&lt;div style=&quot;font-size: 21px;&quot;&gt;&lt;font style=&quot;font-size: 21px;&quot;&gt;Robot(COUNTER_CW);&lt;/font&gt;&lt;/div&gt;&lt;div style=&quot;font-size: 21px;&quot;&gt;&lt;font style=&quot;font-size: 21px;&quot;&gt;Robot(COUNTER_CW);&lt;/font&gt;&lt;/div&gt;" style="edgeLabel;html=1;align=center;verticalAlign=middle;resizable=0;points=[];fontSize=16;" vertex="1" connectable="0" parent="7gBy_IpvQLiR-NHgiW8y-203">
          <mxGeometry x="-0.0758" y="3" relative="1" as="geometry">
            <mxPoint x="87" y="-12" as="offset" />
          </mxGeometry>
        </mxCell>
        <mxCell id="7gBy_IpvQLiR-NHgiW8y-208" style="edgeStyle=none;curved=1;rounded=0;orthogonalLoop=1;jettySize=auto;html=1;exitX=0;exitY=0;exitDx=0;exitDy=0;entryX=1;entryY=0;entryDx=0;entryDy=0;fontSize=12;startSize=8;endSize=8;" edge="1" parent="1" source="7gBy_IpvQLiR-NHgiW8y-149" target="7gBy_IpvQLiR-NHgiW8y-169">
          <mxGeometry relative="1" as="geometry">
            <Array as="points">
              <mxPoint x="880" y="1110" />
            </Array>
          </mxGeometry>
        </mxCell>
        <mxCell id="7gBy_IpvQLiR-NHgiW8y-212" value="&lt;div&gt;&lt;font style=&quot;font-size: 21px;&quot;&gt;! Is_There_Wall() /&lt;/font&gt;&lt;/div&gt;&lt;div&gt;&lt;font style=&quot;font-size: 21px;&quot;&gt;Forward();&lt;br&gt;&lt;/font&gt;&lt;/div&gt;" style="edgeLabel;html=1;align=center;verticalAlign=middle;resizable=0;points=[];fontSize=16;" vertex="1" connectable="0" parent="7gBy_IpvQLiR-NHgiW8y-208">
          <mxGeometry x="-0.0974" y="37" relative="1" as="geometry">
            <mxPoint as="offset" />
          </mxGeometry>
        </mxCell>
        <mxCell id="7gBy_IpvQLiR-NHgiW8y-149" value="&lt;div style=&quot;font-size: 42px;&quot; align=&quot;center&quot;&gt;&lt;font style=&quot;font-size: 42px;&quot;&gt;1&lt;/font&gt;&lt;/div&gt;" style="ellipse;whiteSpace=wrap;html=1;aspect=fixed;fontSize=16;align=center;" vertex="1" parent="1">
          <mxGeometry x="1049.8600000000001" y="1190" width="80" height="80" as="geometry" />
        </mxCell>
        <mxCell id="7gBy_IpvQLiR-NHgiW8y-209" style="edgeStyle=none;curved=1;rounded=0;orthogonalLoop=1;jettySize=auto;html=1;exitX=0;exitY=0;exitDx=0;exitDy=0;entryX=0;entryY=1;entryDx=0;entryDy=0;fontSize=12;startSize=8;endSize=8;" edge="1" parent="1" source="7gBy_IpvQLiR-NHgiW8y-154" target="7gBy_IpvQLiR-NHgiW8y-169">
          <mxGeometry relative="1" as="geometry">
            <Array as="points">
              <mxPoint x="580" y="1380" />
            </Array>
          </mxGeometry>
        </mxCell>
        <mxCell id="7gBy_IpvQLiR-NHgiW8y-213" value="&lt;div&gt;&lt;font style=&quot;font-size: 21px;&quot;&gt;! Is_There_Wall() /&lt;/font&gt;&lt;/div&gt;&lt;div&gt;&lt;font style=&quot;font-size: 21px;&quot;&gt;Forward();&lt;br&gt;&lt;/font&gt;&lt;/div&gt;" style="edgeLabel;html=1;align=center;verticalAlign=middle;resizable=0;points=[];fontSize=16;" vertex="1" connectable="0" parent="7gBy_IpvQLiR-NHgiW8y-209">
          <mxGeometry x="0.1388" y="-27" relative="1" as="geometry">
            <mxPoint x="-43" y="3" as="offset" />
          </mxGeometry>
        </mxCell>
        <mxCell id="7gBy_IpvQLiR-NHgiW8y-220" style="edgeStyle=none;curved=1;rounded=0;orthogonalLoop=1;jettySize=auto;html=1;exitX=0;exitY=1;exitDx=0;exitDy=0;fontSize=12;startSize=8;endSize=8;" edge="1" parent="1" source="7gBy_IpvQLiR-NHgiW8y-154">
          <mxGeometry relative="1" as="geometry">
            <mxPoint x="490" y="1680" as="targetPoint" />
          </mxGeometry>
        </mxCell>
        <mxCell id="7gBy_IpvQLiR-NHgiW8y-221" value="&lt;div style=&quot;font-size: 21px;&quot;&gt;&lt;font style=&quot;font-size: 21px;&quot;&gt;Is_There_Wall() /&lt;/font&gt;&lt;/div&gt;&lt;div style=&quot;font-size: 21px;&quot;&gt;&lt;font style=&quot;font-size: 21px;&quot;&gt;Challenge_Was_Finished();&lt;font style=&quot;font-size: 21px;&quot;&gt;&lt;br&gt;&lt;/font&gt;&lt;/font&gt;&lt;/div&gt;" style="edgeLabel;html=1;align=center;verticalAlign=middle;resizable=0;points=[];fontSize=16;" vertex="1" connectable="0" parent="7gBy_IpvQLiR-NHgiW8y-220">
          <mxGeometry x="0.0964" y="-2" relative="1" as="geometry">
            <mxPoint x="19" y="-14" as="offset" />
          </mxGeometry>
        </mxCell>
        <mxCell id="7gBy_IpvQLiR-NHgiW8y-154" value="&lt;font style=&quot;font-size: 42px;&quot;&gt;3&lt;/font&gt;" style="ellipse;whiteSpace=wrap;html=1;aspect=fixed;fontSize=16;" vertex="1" parent="1">
          <mxGeometry x="639.86" y="1490" width="80" height="80" as="geometry" />
        </mxCell>
        <mxCell id="7gBy_IpvQLiR-NHgiW8y-204" style="edgeStyle=none;curved=1;rounded=0;orthogonalLoop=1;jettySize=auto;html=1;entryX=1;entryY=0.5;entryDx=0;entryDy=0;fontSize=12;startSize=8;endSize=8;" edge="1" parent="1" source="7gBy_IpvQLiR-NHgiW8y-159" target="7gBy_IpvQLiR-NHgiW8y-154">
          <mxGeometry relative="1" as="geometry" />
        </mxCell>
        <mxCell id="7gBy_IpvQLiR-NHgiW8y-216" value="&lt;div style=&quot;font-size: 21px;&quot;&gt;&lt;font style=&quot;font-size: 21px;&quot;&gt;Is_There_Wall() /&lt;/font&gt;&lt;/div&gt;&lt;div style=&quot;font-size: 21px;&quot;&gt;&lt;div&gt;&lt;font style=&quot;font-size: 21px;&quot;&gt;Robot(CLOCK_WISE);&lt;/font&gt;&lt;/div&gt;&lt;div&gt;&lt;font style=&quot;font-size: 21px;&quot;&gt;Robot(CLOCK_WISE);&lt;/font&gt;&lt;/div&gt;&lt;font style=&quot;font-size: 21px;&quot;&gt;Robot(CLOCK_WISE);&lt;/font&gt;&lt;/div&gt;" style="edgeLabel;html=1;align=center;verticalAlign=middle;resizable=0;points=[];fontSize=16;" vertex="1" connectable="0" parent="7gBy_IpvQLiR-NHgiW8y-204">
          <mxGeometry x="-0.0897" y="-2" relative="1" as="geometry">
            <mxPoint x="-10" y="2" as="offset" />
          </mxGeometry>
        </mxCell>
        <mxCell id="7gBy_IpvQLiR-NHgiW8y-210" style="edgeStyle=none;curved=1;rounded=0;orthogonalLoop=1;jettySize=auto;html=1;exitX=0;exitY=0;exitDx=0;exitDy=0;entryX=1;entryY=1;entryDx=0;entryDy=0;fontSize=12;startSize=8;endSize=8;" edge="1" parent="1" source="7gBy_IpvQLiR-NHgiW8y-159" target="7gBy_IpvQLiR-NHgiW8y-169">
          <mxGeometry relative="1" as="geometry" />
        </mxCell>
        <mxCell id="7gBy_IpvQLiR-NHgiW8y-214" value="&lt;div&gt;&lt;font style=&quot;font-size: 21px;&quot;&gt;! Is_There_Wall() /&lt;/font&gt;&lt;/div&gt;&lt;div&gt;&lt;font style=&quot;font-size: 21px;&quot;&gt;Forward();&lt;br&gt;&lt;/font&gt;&lt;/div&gt;" style="edgeLabel;html=1;align=center;verticalAlign=middle;resizable=0;points=[];fontSize=16;" vertex="1" connectable="0" parent="7gBy_IpvQLiR-NHgiW8y-210">
          <mxGeometry x="-0.1044" y="-5" relative="1" as="geometry">
            <mxPoint y="-1" as="offset" />
          </mxGeometry>
        </mxCell>
        <mxCell id="7gBy_IpvQLiR-NHgiW8y-159" value="&lt;font style=&quot;font-size: 42px;&quot;&gt;2&lt;/font&gt;" style="ellipse;whiteSpace=wrap;html=1;aspect=fixed;fontSize=16;" vertex="1" parent="1">
          <mxGeometry x="1049.8600000000001" y="1490" width="80" height="80" as="geometry" />
        </mxCell>
        <mxCell id="7gBy_IpvQLiR-NHgiW8y-202" style="edgeStyle=none;curved=1;rounded=0;orthogonalLoop=1;jettySize=auto;html=1;exitX=1;exitY=0.5;exitDx=0;exitDy=0;entryX=0;entryY=0.5;entryDx=0;entryDy=0;fontSize=12;startSize=8;endSize=8;" edge="1" parent="1" source="7gBy_IpvQLiR-NHgiW8y-169" target="7gBy_IpvQLiR-NHgiW8y-149">
          <mxGeometry relative="1" as="geometry" />
        </mxCell>
        <mxCell id="7gBy_IpvQLiR-NHgiW8y-211" value="&lt;div&gt;&lt;font style=&quot;font-size: 21px;&quot;&gt;Is_There_Wall() /&amp;nbsp;&lt;/font&gt;&lt;/div&gt;&lt;div&gt;&lt;font style=&quot;font-size: 21px;&quot;&gt;Robot(CLOCK_WISE);&lt;/font&gt;&lt;/div&gt;" style="edgeLabel;html=1;align=center;verticalAlign=middle;resizable=0;points=[];fontSize=16;" vertex="1" connectable="0" parent="7gBy_IpvQLiR-NHgiW8y-202">
          <mxGeometry x="-0.0214" y="3" relative="1" as="geometry">
            <mxPoint as="offset" />
          </mxGeometry>
        </mxCell>
        <mxCell id="7gBy_IpvQLiR-NHgiW8y-169" value="&lt;div style=&quot;font-size: 42px;&quot; align=&quot;center&quot;&gt;&lt;font style=&quot;font-size: 42px;&quot;&gt;0&lt;/font&gt;&lt;/div&gt;" style="ellipse;whiteSpace=wrap;html=1;aspect=fixed;fontSize=16;align=center;" vertex="1" parent="1">
          <mxGeometry x="639.86" y="1190" width="80" height="80" as="geometry" />
        </mxCell>
        <mxCell id="7gBy_IpvQLiR-NHgiW8y-175" style="edgeStyle=none;curved=1;rounded=0;orthogonalLoop=1;jettySize=auto;html=1;entryX=0;entryY=0.5;entryDx=0;entryDy=0;fontSize=12;startSize=8;endSize=8;" edge="1" parent="1" source="7gBy_IpvQLiR-NHgiW8y-179" target="7gBy_IpvQLiR-NHgiW8y-184">
          <mxGeometry relative="1" as="geometry" />
        </mxCell>
        <mxCell id="7gBy_IpvQLiR-NHgiW8y-176" value="&lt;div&gt;&lt;font style=&quot;font-size: 21px;&quot;&gt;Is_There_Wall() /&amp;nbsp;&lt;/font&gt;&lt;/div&gt;&lt;div&gt;&lt;font style=&quot;font-size: 21px;&quot;&gt;Robot(CLOCK_WISE);&lt;/font&gt;&lt;/div&gt;" style="edgeLabel;html=1;align=center;verticalAlign=middle;resizable=0;points=[];fontSize=16;" vertex="1" connectable="0" parent="7gBy_IpvQLiR-NHgiW8y-175">
          <mxGeometry x="-0.0483" y="1" relative="1" as="geometry">
            <mxPoint x="8" y="-79" as="offset" />
          </mxGeometry>
        </mxCell>
        <mxCell id="7gBy_IpvQLiR-NHgiW8y-177" style="edgeStyle=none;curved=1;rounded=0;orthogonalLoop=1;jettySize=auto;html=1;exitX=0;exitY=0.5;exitDx=0;exitDy=0;entryX=0;entryY=0;entryDx=0;entryDy=0;fontSize=12;startSize=8;endSize=8;" edge="1" parent="1" source="7gBy_IpvQLiR-NHgiW8y-179" target="7gBy_IpvQLiR-NHgiW8y-199">
          <mxGeometry relative="1" as="geometry">
            <Array as="points">
              <mxPoint x="409" y="2170" />
            </Array>
          </mxGeometry>
        </mxCell>
        <mxCell id="7gBy_IpvQLiR-NHgiW8y-178" value="&lt;div&gt;&lt;font style=&quot;font-size: 21px;&quot;&gt;! Is_There_Wall() /&lt;/font&gt;&lt;/div&gt;&lt;div&gt;&lt;font style=&quot;font-size: 21px;&quot;&gt;Forward();&lt;br&gt;&lt;/font&gt;&lt;/div&gt;" style="edgeLabel;html=1;align=center;verticalAlign=middle;resizable=0;points=[];fontSize=16;" vertex="1" connectable="0" parent="7gBy_IpvQLiR-NHgiW8y-177">
          <mxGeometry x="0.3949" y="43" relative="1" as="geometry">
            <mxPoint x="-27" y="-40" as="offset" />
          </mxGeometry>
        </mxCell>
        <mxCell id="7gBy_IpvQLiR-NHgiW8y-179" value="&lt;div style=&quot;font-size: 42px;&quot; align=&quot;center&quot;&gt;&lt;font style=&quot;font-size: 42px;&quot;&gt;1&lt;/font&gt;&lt;/div&gt;" style="ellipse;whiteSpace=wrap;html=1;aspect=fixed;fontSize=16;align=center;" vertex="1" parent="1">
          <mxGeometry x="588.86" y="1970" width="80" height="80" as="geometry" />
        </mxCell>
        <mxCell id="7gBy_IpvQLiR-NHgiW8y-180" style="edgeStyle=none;curved=1;rounded=0;orthogonalLoop=1;jettySize=auto;html=1;exitX=1;exitY=0.5;exitDx=0;exitDy=0;entryX=0;entryY=0.5;entryDx=0;entryDy=0;fontSize=12;startSize=8;endSize=8;" edge="1" parent="1" source="7gBy_IpvQLiR-NHgiW8y-184" target="7gBy_IpvQLiR-NHgiW8y-189">
          <mxGeometry relative="1" as="geometry" />
        </mxCell>
        <mxCell id="7gBy_IpvQLiR-NHgiW8y-181" value="&lt;font style=&quot;font-size: 21px;&quot;&gt;Is_There_Wall() /&lt;/font&gt;&lt;div style=&quot;font-size: 21px;&quot;&gt;&lt;font style=&quot;font-size: 21px;&quot;&gt;Robot(COUNTER_CW);&lt;/font&gt;&lt;/div&gt;&lt;div style=&quot;font-size: 21px;&quot;&gt;&lt;font style=&quot;font-size: 21px;&quot;&gt;Robot(COUNTER_CW);&lt;/font&gt;&lt;/div&gt;" style="edgeLabel;html=1;align=center;verticalAlign=middle;resizable=0;points=[];fontSize=16;" vertex="1" connectable="0" parent="7gBy_IpvQLiR-NHgiW8y-180">
          <mxGeometry x="-0.0923" y="2" relative="1" as="geometry">
            <mxPoint x="16" y="-69" as="offset" />
          </mxGeometry>
        </mxCell>
        <mxCell id="7gBy_IpvQLiR-NHgiW8y-182" style="edgeStyle=none;curved=1;rounded=0;orthogonalLoop=1;jettySize=auto;html=1;exitX=0.5;exitY=1;exitDx=0;exitDy=0;entryX=1;entryY=0;entryDx=0;entryDy=0;fontSize=12;startSize=8;endSize=8;" edge="1" parent="1" source="7gBy_IpvQLiR-NHgiW8y-184" target="7gBy_IpvQLiR-NHgiW8y-199">
          <mxGeometry relative="1" as="geometry" />
        </mxCell>
        <mxCell id="7gBy_IpvQLiR-NHgiW8y-183" value="&lt;div&gt;&lt;font style=&quot;font-size: 21px;&quot;&gt;! Is_There_Wall() /&lt;/font&gt;&lt;/div&gt;&lt;div&gt;&lt;font style=&quot;font-size: 21px;&quot;&gt;Forward();&lt;br&gt;&lt;/font&gt;&lt;/div&gt;" style="edgeLabel;html=1;align=center;verticalAlign=middle;resizable=0;points=[];fontSize=16;" vertex="1" connectable="0" parent="7gBy_IpvQLiR-NHgiW8y-182">
          <mxGeometry x="-0.0451" y="-3" relative="1" as="geometry">
            <mxPoint y="1" as="offset" />
          </mxGeometry>
        </mxCell>
        <mxCell id="7gBy_IpvQLiR-NHgiW8y-184" value="&lt;font style=&quot;font-size: 42px;&quot;&gt;2&lt;/font&gt;" style="ellipse;whiteSpace=wrap;html=1;aspect=fixed;fontSize=16;" vertex="1" parent="1">
          <mxGeometry x="830" y="1970" width="80" height="80" as="geometry" />
        </mxCell>
        <mxCell id="7gBy_IpvQLiR-NHgiW8y-185" style="edgeStyle=none;curved=1;rounded=0;orthogonalLoop=1;jettySize=auto;html=1;exitX=0.5;exitY=1;exitDx=0;exitDy=0;entryX=0.5;entryY=0;entryDx=0;entryDy=0;fontSize=12;startSize=8;endSize=8;" edge="1" parent="1" source="7gBy_IpvQLiR-NHgiW8y-189" target="7gBy_IpvQLiR-NHgiW8y-194">
          <mxGeometry relative="1" as="geometry" />
        </mxCell>
        <mxCell id="7gBy_IpvQLiR-NHgiW8y-186" value="&lt;div style=&quot;font-size: 21px;&quot;&gt;&lt;font style=&quot;font-size: 21px;&quot;&gt;Is_There_Wall() /&lt;/font&gt;&lt;/div&gt;&lt;div style=&quot;font-size: 21px;&quot;&gt;&lt;div&gt;&lt;font style=&quot;font-size: 21px;&quot;&gt;Robot(CLOCK_WISE);&lt;/font&gt;&lt;/div&gt;&lt;div&gt;&lt;font style=&quot;font-size: 21px;&quot;&gt;Robot(CLOCK_WISE);&lt;/font&gt;&lt;/div&gt;&lt;font style=&quot;font-size: 21px;&quot;&gt;Robot(CLOCK_WISE);&lt;/font&gt;&lt;/div&gt;" style="edgeLabel;html=1;align=center;verticalAlign=middle;resizable=0;points=[];fontSize=16;" vertex="1" connectable="0" parent="7gBy_IpvQLiR-NHgiW8y-185">
          <mxGeometry x="0.0186" y="-4" relative="1" as="geometry">
            <mxPoint x="14" y="6" as="offset" />
          </mxGeometry>
        </mxCell>
        <mxCell id="7gBy_IpvQLiR-NHgiW8y-187" style="edgeStyle=none;curved=1;rounded=0;orthogonalLoop=1;jettySize=auto;html=1;fontSize=12;startSize=8;endSize=8;entryX=0.956;entryY=0.29;entryDx=0;entryDy=0;entryPerimeter=0;" edge="1" parent="1" source="7gBy_IpvQLiR-NHgiW8y-189" target="7gBy_IpvQLiR-NHgiW8y-199">
          <mxGeometry relative="1" as="geometry">
            <mxPoint x="669" y="2370" as="targetPoint" />
          </mxGeometry>
        </mxCell>
        <mxCell id="7gBy_IpvQLiR-NHgiW8y-188" value="&lt;div&gt;&lt;font style=&quot;font-size: 21px;&quot;&gt;! Is_There_Wall() /&lt;/font&gt;&lt;/div&gt;&lt;div&gt;&lt;font style=&quot;font-size: 21px;&quot;&gt;Forward();&lt;br&gt;&lt;/font&gt;&lt;/div&gt;" style="edgeLabel;html=1;align=center;verticalAlign=middle;resizable=0;points=[];fontSize=16;" vertex="1" connectable="0" parent="7gBy_IpvQLiR-NHgiW8y-187">
          <mxGeometry x="0.0895" y="3" relative="1" as="geometry">
            <mxPoint x="93" y="-42" as="offset" />
          </mxGeometry>
        </mxCell>
        <mxCell id="7gBy_IpvQLiR-NHgiW8y-189" value="&lt;font style=&quot;font-size: 42px;&quot;&gt;3&lt;/font&gt;" style="ellipse;whiteSpace=wrap;html=1;aspect=fixed;fontSize=16;" vertex="1" parent="1">
          <mxGeometry x="1159.0000000000002" y="1970" width="80" height="80" as="geometry" />
        </mxCell>
        <mxCell id="7gBy_IpvQLiR-NHgiW8y-190" style="edgeStyle=none;curved=1;rounded=0;orthogonalLoop=1;jettySize=auto;html=1;exitX=0;exitY=0.5;exitDx=0;exitDy=0;entryX=1;entryY=0.5;entryDx=0;entryDy=0;fontSize=12;startSize=8;endSize=8;" edge="1" parent="1" source="7gBy_IpvQLiR-NHgiW8y-194" target="7gBy_IpvQLiR-NHgiW8y-199">
          <mxGeometry relative="1" as="geometry" />
        </mxCell>
        <mxCell id="7gBy_IpvQLiR-NHgiW8y-191" value="&lt;div&gt;&lt;font style=&quot;font-size: 21px;&quot;&gt;! Is_There_Wall() /&lt;/font&gt;&lt;/div&gt;&lt;div&gt;&lt;font style=&quot;font-size: 21px;&quot;&gt;Forward();&lt;br&gt;&lt;/font&gt;&lt;/div&gt;" style="edgeLabel;html=1;align=center;verticalAlign=middle;resizable=0;points=[];fontSize=16;" vertex="1" connectable="0" parent="7gBy_IpvQLiR-NHgiW8y-190">
          <mxGeometry x="-0.0466" y="-2" relative="1" as="geometry">
            <mxPoint x="-1" y="3" as="offset" />
          </mxGeometry>
        </mxCell>
        <mxCell id="7gBy_IpvQLiR-NHgiW8y-192" style="edgeStyle=none;curved=1;rounded=0;orthogonalLoop=1;jettySize=auto;html=1;exitX=0.5;exitY=1;exitDx=0;exitDy=0;fontSize=12;startSize=8;endSize=8;" edge="1" parent="1" source="7gBy_IpvQLiR-NHgiW8y-194">
          <mxGeometry relative="1" as="geometry">
            <mxPoint x="1024.1399999999999" y="2560" as="targetPoint" />
          </mxGeometry>
        </mxCell>
        <mxCell id="7gBy_IpvQLiR-NHgiW8y-193" value="&lt;div style=&quot;font-size: 21px;&quot;&gt;&lt;font style=&quot;font-size: 21px;&quot;&gt;Is_There_Wall() /&lt;/font&gt;&lt;/div&gt;&lt;div style=&quot;font-size: 21px;&quot;&gt;&lt;font style=&quot;font-size: 21px;&quot;&gt;Challenge_Was_Finished();&lt;font style=&quot;font-size: 21px;&quot;&gt;&lt;br&gt;&lt;/font&gt;&lt;/font&gt;&lt;/div&gt;" style="edgeLabel;html=1;align=center;verticalAlign=middle;resizable=0;points=[];fontSize=16;" vertex="1" connectable="0" parent="7gBy_IpvQLiR-NHgiW8y-192">
          <mxGeometry x="-0.2144" y="1" relative="1" as="geometry">
            <mxPoint y="1" as="offset" />
          </mxGeometry>
        </mxCell>
        <mxCell id="7gBy_IpvQLiR-NHgiW8y-194" value="&lt;font style=&quot;font-size: 42px;&quot;&gt;4&lt;/font&gt;" style="ellipse;whiteSpace=wrap;html=1;aspect=fixed;fontSize=16;" vertex="1" parent="1">
          <mxGeometry x="1159.0000000000002" y="2320" width="80" height="80" as="geometry" />
        </mxCell>
        <mxCell id="7gBy_IpvQLiR-NHgiW8y-195" style="edgeStyle=none;curved=1;rounded=0;orthogonalLoop=1;jettySize=auto;html=1;entryX=0.5;entryY=1;entryDx=0;entryDy=0;fontSize=12;startSize=8;endSize=8;" edge="1" parent="1" source="7gBy_IpvQLiR-NHgiW8y-199" target="7gBy_IpvQLiR-NHgiW8y-179">
          <mxGeometry relative="1" as="geometry" />
        </mxCell>
        <mxCell id="7gBy_IpvQLiR-NHgiW8y-196" value="&lt;font style=&quot;font-size: 21px;&quot;&gt;Running() &lt;/font&gt;" style="edgeLabel;html=1;align=center;verticalAlign=middle;resizable=0;points=[];fontSize=16;" vertex="1" connectable="0" parent="7gBy_IpvQLiR-NHgiW8y-195">
          <mxGeometry x="0.0196" y="2" relative="1" as="geometry">
            <mxPoint x="2" y="27" as="offset" />
          </mxGeometry>
        </mxCell>
        <mxCell id="7gBy_IpvQLiR-NHgiW8y-197" value="" style="edgeStyle=none;curved=1;rounded=0;orthogonalLoop=1;jettySize=auto;html=1;fontSize=12;startSize=8;endSize=8;" edge="1" parent="1" source="7gBy_IpvQLiR-NHgiW8y-199">
          <mxGeometry relative="1" as="geometry">
            <mxPoint x="814.14" y="2560" as="targetPoint" />
          </mxGeometry>
        </mxCell>
        <mxCell id="7gBy_IpvQLiR-NHgiW8y-198" value="&lt;div style=&quot;font-size: 21px;&quot;&gt;&lt;font style=&quot;font-size: 21px;&quot;&gt;! Running() /&lt;/font&gt;&lt;/div&gt;&lt;div style=&quot;font-size: 21px;&quot;&gt;&lt;font style=&quot;font-size: 21px;&quot;&gt;Challenge_Was_Finished;&lt;font style=&quot;font-size: 21px;&quot;&gt;&lt;br&gt;&lt;/font&gt;&lt;/font&gt;&lt;/div&gt;" style="edgeLabel;html=1;align=center;verticalAlign=middle;resizable=0;points=[];fontSize=16;" vertex="1" connectable="0" parent="7gBy_IpvQLiR-NHgiW8y-197">
          <mxGeometry x="-0.0796" y="-6" relative="1" as="geometry">
            <mxPoint as="offset" />
          </mxGeometry>
        </mxCell>
        <mxCell id="7gBy_IpvQLiR-NHgiW8y-199" value="&lt;div style=&quot;font-size: 42px;&quot; align=&quot;center&quot;&gt;&lt;font style=&quot;font-size: 42px;&quot;&gt;0&lt;/font&gt;&lt;/div&gt;" style="ellipse;whiteSpace=wrap;html=1;aspect=fixed;fontSize=16;align=center;" vertex="1" parent="1">
          <mxGeometry x="588.86" y="2320" width="80" height="80" as="geometry" />
        </mxCell>
        <mxCell id="7gBy_IpvQLiR-NHgiW8y-200" value="" style="endArrow=classic;html=1;rounded=0;fontSize=12;startSize=8;endSize=8;curved=1;entryX=0;entryY=0.5;entryDx=0;entryDy=0;" edge="1" parent="1" target="7gBy_IpvQLiR-NHgiW8y-199">
          <mxGeometry width="50" height="50" relative="1" as="geometry">
            <mxPoint x="489" y="2470" as="sourcePoint" />
            <mxPoint x="539" y="2420" as="targetPoint" />
            <Array as="points">
              <mxPoint x="479" y="2380" />
            </Array>
          </mxGeometry>
        </mxCell>
        <mxCell id="7gBy_IpvQLiR-NHgiW8y-201" value="&lt;font style=&quot;font-size: 21px;&quot;&gt;NULL &lt;font style=&quot;font-size: 21px;&quot;&gt;/&lt;/font&gt;&lt;/font&gt;&lt;div style=&quot;font-size: 21px;&quot;&gt;&lt;font style=&quot;font-size: 21px;&quot;&gt;Testing_Maze();&lt;font style=&quot;font-size: 21px;&quot;&gt;&lt;br&gt;&lt;/font&gt;&lt;/font&gt;&lt;/div&gt;" style="edgeLabel;html=1;align=center;verticalAlign=middle;resizable=0;points=[];fontSize=16;" vertex="1" connectable="0" parent="7gBy_IpvQLiR-NHgiW8y-200">
          <mxGeometry x="-0.4083" y="-16" relative="1" as="geometry">
            <mxPoint as="offset" />
          </mxGeometry>
        </mxCell>
        <mxCell id="7gBy_IpvQLiR-NHgiW8y-218" style="edgeStyle=none;curved=1;rounded=0;orthogonalLoop=1;jettySize=auto;html=1;exitX=0;exitY=0.5;exitDx=0;exitDy=0;entryX=0.5;entryY=0;entryDx=0;entryDy=0;fontSize=12;startSize=8;endSize=8;" edge="1" parent="1" source="7gBy_IpvQLiR-NHgiW8y-169" target="7gBy_IpvQLiR-NHgiW8y-169">
          <mxGeometry relative="1" as="geometry">
            <Array as="points">
              <mxPoint x="560" y="1110" />
            </Array>
          </mxGeometry>
        </mxCell>
        <mxCell id="7gBy_IpvQLiR-NHgiW8y-219" value="&lt;div&gt;&lt;font style=&quot;font-size: 21px;&quot;&gt;! Is_There_Wall() /&lt;/font&gt;&lt;/div&gt;&lt;div&gt;&lt;font style=&quot;font-size: 21px;&quot;&gt;Forward();&lt;br&gt;&lt;/font&gt;&lt;/div&gt;" style="edgeLabel;html=1;align=center;verticalAlign=middle;resizable=0;points=[];fontSize=16;" vertex="1" connectable="0" parent="7gBy_IpvQLiR-NHgiW8y-218">
          <mxGeometry x="-0.5405" y="-12" relative="1" as="geometry">
            <mxPoint x="-13" y="-28" as="offset" />
          </mxGeometry>
        </mxCell>
        <mxCell id="7gBy_IpvQLiR-NHgiW8y-225" value="" style="edgeStyle=none;curved=1;rounded=0;orthogonalLoop=1;jettySize=auto;html=1;fontSize=12;startSize=8;endSize=8;" edge="1" parent="1" source="7gBy_IpvQLiR-NHgiW8y-222" target="7gBy_IpvQLiR-NHgiW8y-4">
          <mxGeometry relative="1" as="geometry" />
        </mxCell>
        <mxCell id="7gBy_IpvQLiR-NHgiW8y-222" value="&amp;nbsp;&amp;nbsp;&amp;nbsp; Challenge_Was_Finished();&lt;br&gt;" style="rounded=0;whiteSpace=wrap;html=1;fontSize=16;labelBackgroundColor=none;" vertex="1" parent="1">
          <mxGeometry x="279.79" y="510" width="220.14" height="60" as="geometry" />
        </mxCell>
        <mxCell id="7gBy_IpvQLiR-NHgiW8y-227" value="&lt;font style=&quot;font-size: 32px;&quot;&gt;Diagrama de máquina de estados finitos para las condiciones:&lt;br&gt;&lt;/font&gt;" style="text;html=1;align=center;verticalAlign=middle;resizable=0;points=[];autosize=1;strokeColor=none;fillColor=none;fontSize=16;" vertex="1" parent="1">
          <mxGeometry x="390" y="1020" width="900" height="50" as="geometry" />
        </mxCell>
        <mxCell id="7gBy_IpvQLiR-NHgiW8y-228" value="&lt;font style=&quot;font-size: 32px;&quot;&gt;Diagrama de máquina de estados finitos incluyendo las entradas:&lt;br&gt;&lt;/font&gt;" style="text;html=1;align=center;verticalAlign=middle;resizable=0;points=[];autosize=1;strokeColor=none;fillColor=none;fontSize=16;" vertex="1" parent="1">
          <mxGeometry x="378.86" y="1820" width="950" height="50" as="geometry" />
        </mxCell>
        <mxCell id="7gBy_IpvQLiR-NHgiW8y-229" value="&lt;font style=&quot;font-size: 32px;&quot;&gt;Diagrama de flujo del algoritmo:&lt;/font&gt;" style="text;html=1;align=center;verticalAlign=middle;resizable=0;points=[];autosize=1;strokeColor=none;fillColor=none;fontSize=16;" vertex="1" parent="1">
          <mxGeometry x="565" y="30" width="470" height="50" as="geometry" />
        </mxCell>
      </root>
    </mxGraphModel>
  </diagram>
</mxfile>
